<svg version="1.1" id="Layer_1" xmlns="http://www.w3.org/2000/svg" xmlns:xlink="http://www.w3.org/1999/xlink" x="0px" y="0px"
	 width="100%" viewBox="0 0 1024 1008" enable-background="new 0 0 1024 1008" xml:space="preserve">
<path fill="#000000" opacity="1.000000" stroke="none" 
	d="
M741.000000,1009.000000 
	C602.975098,1009.000000 464.950195,1009.000000 326.457794,1008.725891 
	C322.978912,999.659912 317.106476,993.453430 308.853363,989.343628 
	C304.922241,987.386047 301.735626,984.438354 298.712555,981.309021 
	C296.041656,978.544434 293.072021,976.185120 289.893097,973.990417 
	C273.556488,962.711853 255.107697,955.152222 238.496292,944.221558 
	C226.231567,936.151184 216.877579,926.131348 211.417099,913.096863 
	C205.443176,898.836914 197.551895,886.049866 188.720093,873.462891 
	C177.194275,857.036255 164.049164,842.069214 150.690781,827.233215 
	C141.898758,817.468628 131.908478,808.774902 123.271446,798.939392 
	C112.656723,786.851562 101.774780,774.787659 94.334709,760.210205 
	C92.303253,756.229858 89.481644,752.645081 86.941864,748.934021 
	C84.139343,744.839050 80.533821,741.990234 75.639427,740.391418 
	C69.809723,738.487061 64.339310,735.723999 59.207325,732.148193 
	C53.481857,728.158691 48.139801,723.658203 42.071014,720.080322 
	C37.134460,717.169861 32.340767,713.749084 29.251543,708.469055 
	C23.724966,699.023071 19.524704,688.310974 8.409267,683.658386 
	C6.029220,682.662109 4.818953,677.955750 1.000000,681.000000 
	C1.000000,496.641754 1.000000,312.283508 1.185208,127.685997 
	C4.241728,130.709976 8.767689,131.379059 11.938839,133.983475 
	C17.243250,138.339905 21.886665,137.029297 26.905094,133.654831 
	C30.412678,131.296280 33.186119,128.222137 36.136425,125.311852 
	C39.077850,122.410316 42.511814,120.875992 46.554428,119.898911 
	C59.500469,116.769928 69.886864,110.403687 73.323586,96.381348 
	C74.390388,92.028648 75.904510,87.570374 75.811386,83.190254 
	C75.563736,71.542244 77.657433,60.698086 81.994896,49.759525 
	C85.213661,41.642197 89.427002,35.059875 96.204559,29.912483 
	C98.494209,28.173552 101.350212,26.362858 101.463318,23.546028 
	C101.771431,15.872559 100.073990,8.377955 98.000000,1.000000 
	C390.358246,1.000000 682.716492,1.000000 975.376953,1.373741 
	C974.797058,6.973567 973.655334,12.172336 973.101685,17.432995 
	C972.478882,23.351238 976.987793,27.980564 981.656189,26.708052 
	C990.213318,24.375584 995.260986,26.722456 999.423767,34.729542 
	C1001.519714,38.760925 1002.743042,43.010460 1003.744690,47.417973 
	C1005.334595,54.413929 1008.001465,56.521439 1015.119507,56.910320 
	C1018.439270,57.091690 1021.762085,57.125961 1025.000000,58.000000 
	C1025.000000,108.358246 1025.000000,158.716492 1024.666016,209.636627 
	C1011.760742,214.937775 1006.495178,224.901260 1004.816101,237.448303 
	C1004.241455,241.741714 1003.582214,246.023743 1002.989990,250.314850 
	C1002.165771,256.286072 1000.932251,262.151306 998.190247,267.575012 
	C995.720398,272.460266 992.323608,276.853302 987.135803,278.642517 
	C980.810974,280.823914 976.329773,284.996002 972.015503,289.691620 
	C967.959229,294.106628 964.064148,298.731812 959.587646,302.686646 
	C947.357971,313.490967 941.327576,327.258423 938.504883,343.017761 
	C937.130920,350.689148 937.119629,358.759247 933.874573,365.957886 
	C930.004578,374.542847 927.178833,383.416138 925.523804,392.605133 
	C920.001282,423.267120 909.950073,452.955170 906.001831,483.949158 
	C904.545166,495.384552 898.741272,505.346405 895.052979,516.026611 
	C889.516235,532.059448 888.516479,549.002808 885.555908,565.552246 
	C881.764832,586.743469 878.774841,608.004211 879.851746,629.640991 
	C880.041443,633.452881 879.549683,637.294067 879.497131,641.123413 
	C879.258911,658.489197 874.974915,675.458740 874.653320,692.849731 
	C874.462524,703.170227 872.741455,713.437805 869.305054,723.278992 
	C861.281494,746.257385 857.628662,770.143799 855.008301,794.176025 
	C852.491943,817.254761 845.458130,838.728394 833.502197,858.506531 
	C827.462341,868.498169 818.683533,876.447815 811.484680,885.623474 
	C799.329102,901.116943 790.426514,918.337708 782.499634,936.139771 
	C779.016846,943.961487 775.320801,951.536438 769.579285,957.944336 
	C765.714233,962.257874 764.203674,967.029175 766.063721,972.691528 
	C767.631348,977.463623 766.521912,981.548096 762.704163,984.871765 
	C760.194763,987.056519 757.673523,989.230225 755.226501,991.483582 
	C750.947327,995.424255 746.636108,999.337402 742.519470,1003.443604 
	C741.107971,1004.851501 739.055847,1006.492249 741.000000,1009.000000 
M440.681305,785.689697 
	C465.338379,795.371277 491.053375,800.327393 517.340393,802.458252 
	C522.568542,802.882019 527.062744,804.310547 531.151978,807.424622 
	C548.154419,820.372559 551.294067,846.830566 543.810547,863.857666 
	C542.866760,866.005066 541.368042,866.841614 539.103088,866.710083 
	C524.265503,865.848633 513.775024,873.216064 505.440674,884.591797 
	C496.459534,896.850098 493.733521,911.274780 491.741547,925.808105 
	C491.121643,930.330627 493.087097,934.433350 497.908600,936.745056 
	C505.535614,940.401917 513.622009,941.971802 521.888672,942.957886 
	C537.745117,944.849365 553.419983,944.183594 568.712646,939.193481 
	C573.790344,937.536621 576.602905,933.599243 576.590698,928.275696 
	C576.565430,917.253235 575.455994,906.324585 571.454529,895.983704 
	C568.338623,887.931152 563.797913,881.049744 553.765564,880.752197 
	C552.660828,880.719421 551.569824,880.221802 549.984192,879.814331 
	C566.577454,853.281860 564.279114,828.011475 545.651733,804.043335 
	C546.357788,802.631226 547.438232,802.782898 548.398010,802.657104 
	C555.968445,801.664917 563.575928,800.895935 571.103882,799.647766 
	C610.788391,793.068237 644.200867,774.261597 672.132690,745.905823 
	C692.857971,724.865967 707.145569,699.479736 717.596069,671.929077 
	C726.180481,649.297913 731.844482,625.905945 735.425659,602.010925 
	C739.075073,577.660889 742.233765,553.232849 741.536621,528.537048 
	C741.138428,514.432922 739.286194,500.426880 737.739807,486.397644 
	C735.412231,465.279388 730.867615,444.480774 729.254333,423.254822 
	C728.329407,411.084686 727.967102,398.971436 730.301697,387.018890 
	C733.780518,369.207397 742.717041,354.491516 757.138306,343.287140 
	C761.929688,339.564575 765.210266,335.388916 763.021790,328.791107 
	C762.583496,327.469818 762.974121,325.829163 763.149719,324.355682 
	C764.603516,312.156616 770.628418,301.674591 776.022217,291.021210 
	C784.895569,273.495300 790.341248,255.151932 789.518677,235.398666 
	C789.070557,224.637360 787.396667,213.932755 786.680969,203.175598 
	C785.622437,187.265442 787.577332,171.622070 792.034851,156.326309 
	C793.017700,152.953659 792.271301,150.510956 789.664124,148.372375 
	C782.192932,142.244034 774.743896,136.097473 766.446777,131.069199 
	C748.643433,120.279778 730.707947,119.008560 711.981018,129.108337 
	C696.124268,137.660141 685.797241,150.810165 677.965759,166.511673 
	C676.274963,169.901459 676.528015,172.161713 679.242188,174.840485 
	C699.327271,194.663589 712.285522,218.507584 718.642761,245.939270 
	C720.411682,253.572144 721.714050,261.313141 723.293518,269.324219 
	C720.977295,268.838776 720.938538,267.591949 720.560852,266.496613 
	C714.723267,249.568726 706.754700,233.682938 697.009644,218.681442 
	C687.428284,203.931900 675.168396,191.415604 663.263794,178.625290 
	C660.287354,175.427414 659.543945,172.664337 661.251709,168.438766 
	C667.999939,151.741470 677.936584,137.469467 691.692871,125.786591 
	C716.820740,104.446075 750.133301,102.977287 777.124573,121.787453 
	C787.837463,129.253265 797.390686,138.020706 807.097473,146.635544 
	C819.426880,157.577881 831.416016,168.969452 845.862915,177.157776 
	C850.729187,179.915878 855.836792,184.193100 861.936218,179.647736 
	C868.023071,175.111801 867.008301,168.592163 866.462341,162.262833 
	C866.420288,161.775253 866.187073,161.306046 866.060791,160.823578 
	C860.858337,140.953995 850.426819,124.226669 835.476257,110.277901 
	C819.682983,95.542801 801.285339,84.934105 781.476868,76.620567 
	C760.920654,67.993179 739.721680,64.189064 717.578308,68.737106 
	C700.549622,72.234665 684.389526,78.382492 668.434998,85.207153 
	C652.009460,92.233307 639.147644,102.713043 631.879395,119.499847 
	C629.982117,123.881813 627.133484,127.932404 624.268372,131.799210 
	C616.470276,142.323669 606.206177,146.871613 592.913147,144.937073 
	C586.201721,143.960327 579.291199,144.076767 572.475342,144.146500 
	C556.056763,144.314499 540.137451,147.891968 524.301208,151.808777 
	C517.230896,153.557465 510.201599,154.077286 503.075928,152.304947 
	C475.571167,145.463760 447.825226,144.286682 419.976837,149.584671 
	C411.235565,151.247650 403.196259,151.755051 396.121063,145.371643 
	C391.788788,141.462982 387.599762,137.417130 383.949524,132.838135 
	C377.930298,125.287392 372.021088,117.641342 365.787445,110.270668 
	C349.745056,91.302139 328.044098,83.878143 304.388000,80.367767 
	C281.915405,77.033020 260.468628,79.565521 242.309830,93.973915 
	C215.610703,115.158798 198.945114,142.812622 193.563629,176.719162 
	C192.352966,184.347061 193.464142,192.148361 197.056183,199.127029 
	C203.282913,211.224365 217.149902,215.307388 230.712524,209.318268 
	C241.766663,204.436829 250.429047,196.411087 258.592834,187.765106 
	C262.821625,183.286545 266.795197,178.523224 271.931000,175.016418 
	C275.624817,172.494202 277.677246,173.095825 279.128693,177.314423 
	C282.185028,186.197708 279.982727,194.107758 273.838623,200.895844 
	C271.401428,203.588516 268.379974,205.766129 265.545837,208.081955 
	C262.524170,210.551056 261.863129,213.063965 263.938293,216.732559 
	C266.924622,222.011932 266.160980,224.805145 261.664093,229.062363 
	C260.454041,230.207901 259.263184,231.377075 258.004974,232.467911 
	C248.655075,240.574265 247.068665,251.137695 248.804184,262.542877 
	C251.298401,278.933960 256.193756,294.974548 255.476929,311.830811 
	C255.267548,316.755066 257.699768,321.001770 261.699524,323.805634 
	C271.692566,330.810852 273.629059,341.187073 273.156616,352.075409 
	C272.397888,369.562195 269.113525,386.731781 264.799072,403.691162 
	C258.239319,429.476379 246.781555,453.419189 237.013641,478.007446 
	C230.176392,495.218506 228.290787,513.079224 232.087540,531.390320 
	C236.109299,550.786682 243.830124,568.863770 252.207382,586.627075 
	C276.634918,638.423767 309.045959,684.865417 348.350891,726.382019 
	C373.962769,753.435059 405.084076,772.467834 440.681305,785.689697 
M486.147125,815.537354 
	C484.661285,815.361267 483.155334,815.286011 481.692474,814.994568 
	C427.343201,804.166016 380.337830,779.242981 340.154633,741.224976 
	C317.777252,720.053223 298.605774,696.244812 281.756653,670.504944 
	C279.913788,667.689819 278.407166,664.507629 275.521240,662.537964 
	C274.079071,663.595154 274.335663,664.826660 274.565033,665.925110 
	C275.615814,670.957275 276.484894,676.047607 277.892914,680.981873 
	C289.358551,721.162537 311.729523,754.382568 342.599457,782.195557 
	C377.747284,813.862854 418.143127,835.819275 463.794983,848.178711 
	C484.765869,853.856201 506.038177,857.125977 527.817444,856.884155 
	C531.929077,856.838501 534.560913,855.501221 535.192688,851.227234 
	C536.657471,841.318054 535.233643,831.987610 529.615173,823.507080 
	C527.600769,820.466492 524.842773,819.235962 521.116699,819.399536 
	C509.570129,819.906494 498.250458,818.028442 486.147125,815.537354 
M700.644287,736.299866 
	C681.184692,762.039978 657.682800,783.079651 628.682983,797.564453 
	C611.803833,805.995300 594.193542,812.428528 575.499023,815.642273 
	C568.181274,816.900269 568.239929,817.179199 570.324524,824.374146 
	C572.556824,832.079224 573.566772,839.983521 572.722107,848.003906 
	C572.069641,854.198181 572.537781,854.810791 578.764343,853.240356 
	C593.646057,849.486816 608.024597,844.316040 621.752686,837.416504 
	C662.987915,816.692505 690.846680,784.624756 704.037903,740.178711 
	C704.660889,738.079407 705.885315,735.894409 704.708435,733.436401 
	C702.756714,733.296692 702.039368,734.747986 700.644287,736.299866 
M72.950035,684.531555 
	C70.250618,686.936035 69.877922,689.817871 71.013542,693.130920 
	C72.572868,697.680054 73.894859,702.312317 75.520538,706.836426 
	C77.631500,712.711060 81.986443,713.425354 85.788277,708.406250 
	C89.781998,703.133728 90.870857,696.824768 90.301491,690.472290 
	C89.886093,685.837708 86.363731,682.963989 82.207832,681.150391 
	C78.500946,679.532654 75.848206,681.446106 72.950035,684.531555 
z"/>
<path fill="#000000" opacity="1.000000" stroke="none" 
	d="
M1.000000,40.468658 
	C2.392004,42.926220 2.908374,45.802910 5.874944,48.467968 
	C11.481595,53.504791 9.328810,70.505470 3.523631,75.920242 
	C1.889264,77.444702 2.116652,79.585968 1.172139,81.692764 
	C1.000000,68.312439 1.000000,54.624878 1.000000,40.468658 
z"/>
<path fill="#000000" opacity="1.000000" stroke="none" 
	d="
M458.078461,541.785889 
	C478.849518,549.922791 498.404602,545.071106 517.698303,537.773560 
	C534.514465,531.413086 550.465881,522.898254 567.698547,517.548218 
	C569.828430,516.886963 571.492676,515.531677 572.742676,513.661865 
	C578.803101,504.596375 575.972534,489.930542 566.836609,484.014923 
	C559.677612,479.379425 551.762390,476.157471 543.971619,472.816223 
	C520.811279,462.883423 507.227722,444.925659 498.409607,421.895996 
	C487.668304,393.843658 505.337219,365.836212 527.744934,355.466034 
	C540.078735,349.758026 553.080627,348.812836 566.308533,349.247345 
	C573.476501,349.482727 580.610596,349.588959 587.776794,349.102356 
	C603.078735,348.063416 618.262817,348.700073 631.885803,356.738068 
	C652.365967,368.821930 663.412170,386.450470 661.451599,410.835510 
	C658.933350,442.155975 644.595703,465.330811 614.685303,477.563446 
	C611.305420,478.945709 608.162170,480.896606 604.863953,482.490234 
	C591.207397,489.088837 590.350098,500.087860 590.491455,513.777710 
	C590.513916,515.953430 592.159546,516.925842 593.873840,517.695679 
	C605.186646,522.776062 615.310974,529.805481 625.470459,536.798279 
	C629.881042,539.833984 634.718689,542.127014 639.918396,543.488220 
	C650.806335,546.338440 659.051575,541.658386 666.010925,533.901489 
	C677.769226,520.795593 683.624634,505.185699 685.653137,487.837402 
	C688.117432,466.762726 686.361328,446.035339 681.519104,425.476501 
	C681.115967,423.764740 680.055542,422.065704 681.361816,419.804871 
	C683.794189,421.721436 684.444397,424.575745 685.643433,426.958557 
	C697.363098,450.248627 701.545532,474.821869 697.329529,500.597076 
	C695.133850,514.020386 690.505737,526.661743 682.910828,538.070923 
	C676.957947,547.013550 669.462341,554.121277 659.112244,557.798645 
	C655.598083,559.047302 652.335327,560.648987 651.053711,564.624573 
	C646.614990,578.392578 641.384949,591.900269 638.937805,606.283752 
	C637.229004,616.327332 639.878540,625.781006 641.651489,635.379883 
	C645.095886,654.028198 640.708984,670.203613 627.518433,684.118286 
	C612.140137,700.340881 593.515808,710.326294 571.479065,713.219299 
	C549.660339,716.083557 528.804382,711.698853 508.824493,702.682129 
	C493.996216,695.990295 479.818909,688.431885 469.100769,675.685669 
	C464.021606,669.645447 459.743896,663.076721 456.477509,655.954407 
	C448.672394,638.935608 437.441895,625.021240 422.248505,613.836304 
	C410.397003,605.111572 403.030853,592.317017 395.848480,579.668518 
	C395.652466,579.323242 395.823730,578.769409 395.823730,577.689636 
	C400.906708,582.171082 405.474640,586.423950 410.280914,590.387817 
	C419.553925,598.035461 429.421936,604.849609 440.083008,610.435059 
	C450.951080,616.128906 458.815704,624.480469 464.166290,635.571838 
	C468.574829,644.710449 473.343781,653.748230 479.478119,661.884888 
	C488.490479,673.839111 501.269928,680.738586 514.475830,686.872803 
	C528.053589,693.179810 542.404724,697.381348 557.339600,697.364929 
	C584.626770,697.334900 607.199951,686.686157 623.405823,664.269531 
	C628.814514,656.787964 629.859680,648.098022 627.399231,638.134705 
	C624.401306,642.892212 622.143494,647.086853 619.316345,650.854065 
	C607.988281,665.949036 592.055481,672.801086 573.951294,675.257263 
	C545.024719,679.181763 519.294067,670.942139 496.042328,653.990601 
	C487.866974,648.030334 482.785065,639.608154 478.555176,630.635315 
	C477.420471,628.228333 476.325836,625.761292 475.595734,623.212158 
	C472.851593,613.631226 466.627655,607.045105 458.083801,602.395630 
	C422.395569,582.974426 400.973022,551.804871 386.292542,515.121765 
	C384.627289,510.960663 383.451111,506.638947 383.554901,502.012390 
	C383.732178,494.107056 388.334991,491.147888 395.422485,494.844421 
	C401.397461,497.960693 406.218903,502.648926 410.830933,507.456421 
	C420.913391,517.966064 431.905762,527.317749 444.344482,534.947510 
	C448.619324,537.569641 452.971802,539.987427 458.078461,541.785889 
M507.423523,401.790588 
	C505.921173,414.733307 515.965820,424.382233 527.414673,423.935303 
	C534.702698,423.650757 538.668823,419.404694 538.471619,412.112671 
	C538.270142,404.662201 540.990356,400.251099 546.876404,398.483490 
	C553.776672,396.411316 561.658020,398.960419 565.089966,404.374451 
	C572.032410,415.326385 567.943726,429.793030 556.214294,435.221893 
	C548.280579,438.893890 539.927612,439.520508 531.357605,437.963745 
	C528.363831,437.419983 525.337769,436.690979 522.285950,437.443634 
	C522.251038,439.266327 523.209290,440.264160 523.960388,441.331421 
	C530.106018,450.063263 538.833313,455.527252 548.206482,460.012085 
	C556.462708,463.962494 565.122925,467.054413 573.146118,471.516052 
	C577.765625,474.084961 578.553894,473.738495 579.671265,468.477112 
	C582.573120,454.812286 583.640747,440.886017 585.557617,427.081146 
	C585.825439,425.152130 585.794556,423.209351 587.608887,421.772858 
	C589.813721,423.793549 590.026672,426.370972 590.355896,428.758179 
	C591.743225,438.817841 592.510864,448.906464 591.568115,459.079468 
	C591.293518,462.042236 591.453735,465.075867 591.717468,468.050140 
	C592.050964,471.810486 593.857056,472.960358 597.437866,470.996368 
	C604.302612,467.231323 611.362244,463.814117 618.155334,459.927887 
	C624.692871,456.187805 630.743530,451.693420 635.067749,445.378174 
	C636.771912,442.889252 640.242126,440.216095 638.411438,437.164429 
	C636.874512,434.602478 633.180298,436.802734 630.446960,436.745514 
	C629.955750,436.735260 629.463135,436.914337 628.967468,436.975891 
	C620.828735,437.986755 612.166382,433.747314 608.639587,427.032135 
	C605.111389,420.314331 606.257263,408.249084 610.939880,402.812103 
	C614.431519,398.757965 622.009460,397.253601 626.567139,399.709808 
	C630.735657,401.956268 631.688416,405.472382 629.844421,411.803772 
	C627.964966,418.256866 633.341370,423.691101 640.066711,422.136139 
	C647.964417,420.310089 652.458679,413.648712 651.466614,405.239044 
	C649.074524,384.960754 632.719604,366.877899 612.677612,362.374451 
	C605.153564,360.683807 597.605042,360.050446 589.867126,360.940125 
	C577.583801,362.352325 565.236938,360.404968 552.908081,361.374237 
	C529.952515,363.178955 511.445984,379.131226 507.423523,401.790588 
M511.872589,605.656250 
	C513.009399,608.607727 514.079651,611.586914 515.295959,614.505249 
	C518.528992,622.262817 521.934570,629.942017 530.548889,633.296082 
	C534.102356,634.679688 537.754761,635.815369 541.383118,636.999634 
	C559.925537,643.051880 577.993835,641.803162 595.819946,633.923157 
	C601.682068,631.331787 606.481262,627.872803 609.837402,622.442322 
	C617.220703,610.495728 621.048889,597.185303 623.426941,583.593994 
	C625.308105,572.842651 621.700195,567.993042 611.221680,564.462402 
	C603.284119,561.787964 594.999695,560.795471 586.646240,561.015503 
	C580.160034,561.186340 573.704407,561.861877 567.633057,564.548584 
	C564.518250,565.926941 563.563904,567.780518 564.668518,571.235352 
	C566.179199,575.960083 567.392700,580.835449 568.131897,585.737000 
	C569.040710,591.762634 570.892151,597.955688 567.283997,604.607666 
	C564.409851,597.368652 561.729309,590.787537 558.381836,584.481812 
	C547.522156,564.025635 533.664429,558.560669 511.311157,560.959351 
	C505.035278,561.632812 498.815796,562.935303 492.530029,563.388916 
	C483.609741,564.032837 474.658417,563.942017 465.715240,562.211182 
	C467.395416,578.090637 482.421753,607.177063 494.591217,608.064880 
	C496.413849,602.812927 494.920929,597.154236 496.291046,591.830505 
	C496.821716,589.768372 496.659668,587.004822 499.061554,586.384827 
	C501.801971,585.677429 502.985138,588.414673 504.295135,590.218628 
	C507.550354,594.701294 509.502380,599.862610 511.872589,605.656250 
z"/>
<path fill="#000000" opacity="1.000000" stroke="none" 
	d="
M419.719727,313.017761 
	C404.932159,317.367462 392.378326,314.349884 381.944550,303.390350 
	C372.553467,293.526031 372.055603,282.663177 380.396271,271.907104 
	C389.724213,259.877930 403.982666,254.953522 417.094391,259.232849 
	C429.051056,263.135193 436.027588,272.599091 436.730377,287.004181 
	C437.197449,296.577881 433.160004,307.711609 419.719727,313.017761 
z"/>
<path fill="#000000" opacity="1.000000" stroke="none" 
	d="
M301.096375,124.878876 
	C313.271301,136.845535 320.526642,151.354279 326.044556,166.845413 
	C330.177277,178.447754 332.841980,190.456421 335.178497,202.525635 
	C335.986084,206.697006 335.323730,210.270554 332.126648,213.916382 
	C316.422455,231.824860 303.929260,251.771805 295.399200,274.127319 
	C294.571472,276.296509 295.120850,279.223206 292.275543,280.884888 
	C291.204102,277.220154 292.416077,273.797638 292.825226,270.527008 
	C295.460754,249.458115 303.144440,230.304062 316.261841,213.578445 
	C319.989960,208.824829 321.290680,204.469238 319.814331,198.508530 
	C314.872528,178.556351 309.149170,158.945023 297.223175,141.847870 
	C283.214752,121.765350 261.995300,117.205078 240.711868,129.362289 
	C239.381409,130.122253 238.322510,131.797470 236.330322,131.099487 
	C248.915726,114.624107 274.806885,104.234245 296.555389,121.192474 
	C297.998718,122.317917 299.398895,123.498672 301.096375,124.878876 
z"/>
<path fill="#000000" opacity="1.000000" stroke="none" 
	d="
M652.109741,313.304291 
	C630.622375,305.840607 626.015320,278.325470 643.552429,263.840576 
	C659.145630,250.961182 683.978394,260.675140 688.510376,280.455261 
	C693.027344,300.169891 674.229858,319.678070 652.109741,313.304291 
z"/>
<path fill="#000000" opacity="1.000000" stroke="none" 
	d="
M372.976501,536.405518 
	C373.240082,537.301514 373.367645,537.913086 373.585754,538.958801 
	C370.737427,538.551575 370.109985,536.201660 368.774963,534.770386 
	C362.564819,528.112366 358.267487,520.256592 354.763275,511.930847 
	C344.894196,488.482574 356.105896,462.813629 380.073212,454.214172 
	C385.487091,452.271637 390.978546,450.365509 397.708832,450.841644 
	C365.121521,472.488037 357.402618,501.042816 372.976501,536.405518 
z"/>
</svg>